<mxfile host="app.diagrams.net" agent="Mozilla/5.0 (Windows NT 10.0; Win64; x64) AppleWebKit/537.36 (KHTML, like Gecko) Chrome/128.0.0.0 Safari/537.36 OPR/114.0.0.0" version="25.0.3">
  <diagram name="Página-1" id="7nt3yXJEmUoDvdKoWf4_">
    <mxGraphModel dx="1492" dy="829" grid="1" gridSize="10" guides="1" tooltips="1" connect="1" arrows="1" fold="1" page="1" pageScale="1" pageWidth="1169" pageHeight="1654" math="0" shadow="0">
      <root>
        <mxCell id="0" />
        <mxCell id="1" parent="0" />
        <mxCell id="pcE6RHRU4BfHtRQ7VvpY-1" value="diagrama de interfaz de servicios" style="shape=umlFrame;whiteSpace=wrap;html=1;pointerEvents=0;width=200;height=30;" parent="1" vertex="1">
          <mxGeometry x="240" y="200" width="720" height="560" as="geometry" />
        </mxCell>
        <mxCell id="pcE6RHRU4BfHtRQ7VvpY-2" value="&lt;p style=&quot;margin:0px;margin-top:4px;text-align:center;&quot;&gt;&lt;i&gt;&amp;lt;&amp;lt;Interface&amp;gt;&amp;gt;&lt;/i&gt;&lt;br&gt;&lt;b&gt;Servicios Materias Primas&lt;/b&gt;&lt;/p&gt;&lt;hr size=&quot;1&quot; style=&quot;border-style:solid;&quot;&gt;&lt;p style=&quot;margin:0px;margin-left:4px;&quot;&gt;añadirMP()&lt;/p&gt;&lt;p style=&quot;margin:0px;margin-left:4px;&quot;&gt;modificarMP()&lt;/p&gt;&lt;p style=&quot;margin:0px;margin-left:4px;&quot;&gt;eliminarMP()&lt;/p&gt;" style="verticalAlign=top;align=left;overflow=fill;html=1;whiteSpace=wrap;" parent="1" vertex="1">
          <mxGeometry x="280" y="275" width="120" height="110" as="geometry" />
        </mxCell>
        <mxCell id="pcE6RHRU4BfHtRQ7VvpY-3" value="&lt;p style=&quot;margin:0px;margin-top:4px;text-align:center;&quot;&gt;&lt;i&gt;&amp;lt;&amp;lt;Interface&amp;gt;&amp;gt;&lt;/i&gt;&lt;br&gt;&lt;b&gt;Servicios Semielaborados&lt;/b&gt;&lt;/p&gt;&lt;hr size=&quot;1&quot; style=&quot;border-style:solid;&quot;&gt;&lt;p style=&quot;margin: 0px 0px 0px 4px;&quot;&gt;añadirSemielaborado()&lt;/p&gt;&lt;p style=&quot;margin: 0px 0px 0px 4px;&quot;&gt;modificarSemielaborado()&lt;/p&gt;&lt;p style=&quot;margin: 0px 0px 0px 4px;&quot;&gt;eliminarSemielaborado()&lt;/p&gt;" style="verticalAlign=top;align=left;overflow=fill;html=1;whiteSpace=wrap;" parent="1" vertex="1">
          <mxGeometry x="480" y="280" width="160" height="100" as="geometry" />
        </mxCell>
        <mxCell id="pcE6RHRU4BfHtRQ7VvpY-4" value="&lt;p style=&quot;margin:0px;margin-top:4px;text-align:center;&quot;&gt;&lt;i&gt;&amp;lt;&amp;lt;Interface&amp;gt;&amp;gt;&lt;/i&gt;&lt;br&gt;&lt;b&gt;Servicios Directivos&lt;/b&gt;&lt;/p&gt;&lt;hr size=&quot;1&quot; style=&quot;border-style:solid;&quot;&gt;&lt;p style=&quot;margin:0px;margin-left:4px;&quot;&gt;eliminarEmpleado()&lt;/p&gt;&lt;p style=&quot;margin:0px;margin-left:4px;&quot;&gt;crearCategoriaContrato()&lt;/p&gt;&lt;p style=&quot;margin:0px;margin-left:4px;&quot;&gt;modificarCategoriaContrato()&lt;/p&gt;&lt;p style=&quot;margin:0px;margin-left:4px;&quot;&gt;&lt;span style=&quot;background-color: initial;&quot;&gt;modificarContrato()&lt;/span&gt;&lt;/p&gt;&lt;p style=&quot;margin:0px;margin-left:4px;&quot;&gt;&lt;span style=&quot;background-color: initial;&quot;&gt;añadirEmpleado()&lt;/span&gt;&lt;br&gt;&lt;/p&gt;&lt;p style=&quot;margin:0px;margin-left:4px;&quot;&gt;añadirDato()&lt;/p&gt;&lt;p style=&quot;margin:0px;margin-left:4px;&quot;&gt;crearFichaTecnica()&lt;/p&gt;&lt;p style=&quot;margin:0px;margin-left:4px;&quot;&gt;modificarFichaTecnica()&lt;/p&gt;" style="verticalAlign=top;align=left;overflow=fill;html=1;whiteSpace=wrap;" parent="1" vertex="1">
          <mxGeometry x="710" y="280" width="170" height="170" as="geometry" />
        </mxCell>
        <mxCell id="pcE6RHRU4BfHtRQ7VvpY-5" value="&lt;p style=&quot;margin:0px;margin-top:4px;text-align:center;&quot;&gt;&lt;i&gt;&amp;lt;&amp;lt;Interface&amp;gt;&amp;gt;&lt;/i&gt;&lt;br&gt;&lt;b&gt;Servicios Calendario&lt;/b&gt;&lt;/p&gt;&lt;hr size=&quot;1&quot; style=&quot;border-style:solid;&quot;&gt;&lt;p style=&quot;margin:0px;margin-left:4px;&quot;&gt;generarCalendario()&lt;/p&gt;&lt;p style=&quot;margin:0px;margin-left:4px;&quot;&gt;actGenerarCalendario()&lt;/p&gt;&lt;p style=&quot;margin:0px;margin-left:4px;&quot;&gt;marcarCompletado()&lt;/p&gt;" style="verticalAlign=top;align=left;overflow=fill;html=1;whiteSpace=wrap;" parent="1" vertex="1">
          <mxGeometry x="270" y="425" width="160" height="110" as="geometry" />
        </mxCell>
        <mxCell id="pcE6RHRU4BfHtRQ7VvpY-6" value="&lt;p style=&quot;margin:0px;margin-top:4px;text-align:center;&quot;&gt;&lt;i&gt;&amp;lt;&amp;lt;Interface&amp;gt;&amp;gt;&lt;/i&gt;&lt;br&gt;&lt;b&gt;Servicios Pedidos&lt;/b&gt;&lt;/p&gt;&lt;hr size=&quot;1&quot; style=&quot;border-style:solid;&quot;&gt;&lt;p style=&quot;margin:0px;margin-left:4px;&quot;&gt;añadirPedido()&lt;/p&gt;&lt;p style=&quot;margin:0px;margin-left:4px;&quot;&gt;importarDatosExcel()&lt;/p&gt;" style="verticalAlign=top;align=left;overflow=fill;html=1;whiteSpace=wrap;" parent="1" vertex="1">
          <mxGeometry x="270" y="575" width="160" height="80" as="geometry" />
        </mxCell>
        <mxCell id="pcE6RHRU4BfHtRQ7VvpY-7" value="&lt;p style=&quot;margin:0px;margin-top:4px;text-align:center;&quot;&gt;&lt;i&gt;&amp;lt;&amp;lt;Interface&amp;gt;&amp;gt;&lt;/i&gt;&lt;br&gt;&lt;b&gt;Servicios Stock&lt;/b&gt;&lt;/p&gt;&lt;hr size=&quot;1&quot; style=&quot;border-style:solid;&quot;&gt;&lt;p style=&quot;margin:0px;margin-left:4px;&quot;&gt;actualizarStock()&lt;/p&gt;" style="verticalAlign=top;align=left;overflow=fill;html=1;whiteSpace=wrap;" parent="1" vertex="1">
          <mxGeometry x="760" y="480" width="160" height="80" as="geometry" />
        </mxCell>
        <mxCell id="pcE6RHRU4BfHtRQ7VvpY-8" value="&lt;p style=&quot;margin:0px;margin-top:4px;text-align:center;&quot;&gt;&lt;i&gt;&amp;lt;&amp;lt;Interface&amp;gt;&amp;gt;&lt;/i&gt;&lt;br&gt;&lt;b&gt;Servicios Clientes&lt;/b&gt;&lt;/p&gt;&lt;hr size=&quot;1&quot; style=&quot;border-style:solid;&quot;&gt;&lt;p style=&quot;margin:0px;margin-left:4px;&quot;&gt;añadirCantidadProducto()&lt;/p&gt;&lt;p style=&quot;margin:0px;margin-left:4px;&quot;&gt;pasarPagina()&lt;/p&gt;&lt;p style=&quot;margin:0px;margin-left:4px;&quot;&gt;continuarPedido()&lt;/p&gt;&lt;p style=&quot;margin:0px;margin-left:4px;&quot;&gt;completarCompra()&lt;/p&gt;" style="verticalAlign=top;align=left;overflow=fill;html=1;whiteSpace=wrap;" parent="1" vertex="1">
          <mxGeometry x="715" y="580" width="160" height="120" as="geometry" />
        </mxCell>
        <mxCell id="pcE6RHRU4BfHtRQ7VvpY-11" style="edgeStyle=orthogonalEdgeStyle;rounded=0;orthogonalLoop=1;jettySize=auto;html=1;" parent="1" source="pcE6RHRU4BfHtRQ7VvpY-10" target="pcE6RHRU4BfHtRQ7VvpY-2" edge="1">
          <mxGeometry relative="1" as="geometry" />
        </mxCell>
        <mxCell id="pcE6RHRU4BfHtRQ7VvpY-10" value="&amp;lt;&amp;lt;Interface&amp;gt;&amp;gt;&lt;div&gt;Servicio Materia Prima&lt;/div&gt;" style="html=1;whiteSpace=wrap;" parent="1" vertex="1">
          <mxGeometry x="40" y="300" width="120" height="60" as="geometry" />
        </mxCell>
        <mxCell id="pcE6RHRU4BfHtRQ7VvpY-13" style="edgeStyle=orthogonalEdgeStyle;rounded=0;orthogonalLoop=1;jettySize=auto;html=1;entryX=0.5;entryY=0;entryDx=0;entryDy=0;" parent="1" source="pcE6RHRU4BfHtRQ7VvpY-12" target="pcE6RHRU4BfHtRQ7VvpY-3" edge="1">
          <mxGeometry relative="1" as="geometry" />
        </mxCell>
        <mxCell id="pcE6RHRU4BfHtRQ7VvpY-12" value="&amp;lt;&amp;lt;Interface&amp;gt;&amp;gt;&lt;div&gt;Servicio Semielaborado&lt;/div&gt;" style="html=1;whiteSpace=wrap;" parent="1" vertex="1">
          <mxGeometry x="490" y="120" width="140" height="40" as="geometry" />
        </mxCell>
        <mxCell id="pcE6RHRU4BfHtRQ7VvpY-14" value="&amp;lt;&amp;lt;Interface&amp;gt;&amp;gt;&lt;div&gt;Servicio Directivo&lt;/div&gt;" style="html=1;whiteSpace=wrap;" parent="1" vertex="1">
          <mxGeometry x="1000" y="310" width="140" height="60" as="geometry" />
        </mxCell>
        <mxCell id="pcE6RHRU4BfHtRQ7VvpY-15" style="edgeStyle=orthogonalEdgeStyle;rounded=0;orthogonalLoop=1;jettySize=auto;html=1;entryX=1;entryY=0.5;entryDx=0;entryDy=0;" parent="1" source="pcE6RHRU4BfHtRQ7VvpY-14" target="pcE6RHRU4BfHtRQ7VvpY-4" edge="1">
          <mxGeometry relative="1" as="geometry" />
        </mxCell>
        <mxCell id="pcE6RHRU4BfHtRQ7VvpY-17" style="edgeStyle=orthogonalEdgeStyle;rounded=0;orthogonalLoop=1;jettySize=auto;html=1;entryX=1;entryY=0.5;entryDx=0;entryDy=0;" parent="1" source="pcE6RHRU4BfHtRQ7VvpY-16" target="pcE6RHRU4BfHtRQ7VvpY-7" edge="1">
          <mxGeometry relative="1" as="geometry" />
        </mxCell>
        <mxCell id="pcE6RHRU4BfHtRQ7VvpY-16" value="&amp;lt;&amp;lt;Interface&amp;gt;&amp;gt;&lt;div&gt;Servicio Stock&lt;/div&gt;" style="html=1;whiteSpace=wrap;" parent="1" vertex="1">
          <mxGeometry x="1000" y="490" width="140" height="60" as="geometry" />
        </mxCell>
        <mxCell id="pcE6RHRU4BfHtRQ7VvpY-19" style="edgeStyle=orthogonalEdgeStyle;rounded=0;orthogonalLoop=1;jettySize=auto;html=1;entryX=0.5;entryY=1;entryDx=0;entryDy=0;" parent="1" source="pcE6RHRU4BfHtRQ7VvpY-18" target="pcE6RHRU4BfHtRQ7VvpY-8" edge="1">
          <mxGeometry relative="1" as="geometry" />
        </mxCell>
        <mxCell id="pcE6RHRU4BfHtRQ7VvpY-18" value="&amp;lt;&amp;lt;Interface&amp;gt;&amp;gt;&lt;div&gt;Servicio Cliente&lt;/div&gt;" style="html=1;whiteSpace=wrap;" parent="1" vertex="1">
          <mxGeometry x="780" y="850" width="140" height="60" as="geometry" />
        </mxCell>
        <mxCell id="pcE6RHRU4BfHtRQ7VvpY-21" style="edgeStyle=orthogonalEdgeStyle;rounded=0;orthogonalLoop=1;jettySize=auto;html=1;entryX=0.5;entryY=1;entryDx=0;entryDy=0;" parent="1" source="pcE6RHRU4BfHtRQ7VvpY-20" target="pcE6RHRU4BfHtRQ7VvpY-6" edge="1">
          <mxGeometry relative="1" as="geometry" />
        </mxCell>
        <mxCell id="pcE6RHRU4BfHtRQ7VvpY-20" value="&amp;lt;&amp;lt;Interface&amp;gt;&amp;gt;&lt;div&gt;Servicio Pedido&lt;/div&gt;" style="html=1;whiteSpace=wrap;" parent="1" vertex="1">
          <mxGeometry x="290" y="810" width="140" height="60" as="geometry" />
        </mxCell>
        <mxCell id="pcE6RHRU4BfHtRQ7VvpY-23" style="edgeStyle=orthogonalEdgeStyle;rounded=0;orthogonalLoop=1;jettySize=auto;html=1;entryX=0;entryY=0.5;entryDx=0;entryDy=0;" parent="1" source="pcE6RHRU4BfHtRQ7VvpY-22" target="pcE6RHRU4BfHtRQ7VvpY-5" edge="1">
          <mxGeometry relative="1" as="geometry" />
        </mxCell>
        <mxCell id="pcE6RHRU4BfHtRQ7VvpY-22" value="&amp;lt;&amp;lt;Interface&amp;gt;&amp;gt;&lt;div&gt;Servicio Calendario&lt;/div&gt;" style="html=1;whiteSpace=wrap;" parent="1" vertex="1">
          <mxGeometry x="40" y="575" width="140" height="60" as="geometry" />
        </mxCell>
        <mxCell id="AsEGcWaMer-OqswIVFp1-5" style="edgeStyle=orthogonalEdgeStyle;rounded=0;orthogonalLoop=1;jettySize=auto;html=1;entryX=0.5;entryY=1;entryDx=0;entryDy=0;" edge="1" parent="1" source="AsEGcWaMer-OqswIVFp1-1" target="AsEGcWaMer-OqswIVFp1-3">
          <mxGeometry relative="1" as="geometry" />
        </mxCell>
        <mxCell id="AsEGcWaMer-OqswIVFp1-1" value="&amp;lt;&amp;lt;Interface&amp;gt;&amp;gt;&lt;div&gt;Servicio Maquinaria&lt;/div&gt;" style="html=1;whiteSpace=wrap;" vertex="1" parent="1">
          <mxGeometry x="445" y="820" width="140" height="60" as="geometry" />
        </mxCell>
        <mxCell id="AsEGcWaMer-OqswIVFp1-6" style="edgeStyle=orthogonalEdgeStyle;rounded=0;orthogonalLoop=1;jettySize=auto;html=1;entryX=0.5;entryY=1;entryDx=0;entryDy=0;" edge="1" parent="1" source="AsEGcWaMer-OqswIVFp1-2" target="AsEGcWaMer-OqswIVFp1-4">
          <mxGeometry relative="1" as="geometry" />
        </mxCell>
        <mxCell id="AsEGcWaMer-OqswIVFp1-2" value="&amp;lt;&amp;lt;Interface&amp;gt;&amp;gt;&lt;div&gt;Servicio Producto Final&lt;/div&gt;" style="html=1;whiteSpace=wrap;" vertex="1" parent="1">
          <mxGeometry x="600" y="810" width="140" height="60" as="geometry" />
        </mxCell>
        <mxCell id="AsEGcWaMer-OqswIVFp1-3" value="&lt;p style=&quot;margin:0px;margin-top:4px;text-align:center;&quot;&gt;&lt;i&gt;&amp;lt;&amp;lt;Interface&amp;gt;&amp;gt;&lt;/i&gt;&lt;br&gt;&lt;b&gt;Servicios Maquinarias&lt;/b&gt;&lt;/p&gt;&lt;hr size=&quot;1&quot; style=&quot;border-style:solid;&quot;&gt;&lt;p style=&quot;margin: 0px 0px 0px 4px;&quot;&gt;crearMaquinaria()&lt;/p&gt;&lt;p style=&quot;margin: 0px 0px 0px 4px;&quot;&gt;modificarMaquinaria()&lt;/p&gt;&lt;p style=&quot;margin: 0px 0px 0px 4px;&quot;&gt;eliminarMaquinaria()&lt;/p&gt;" style="verticalAlign=top;align=left;overflow=fill;html=1;whiteSpace=wrap;" vertex="1" parent="1">
          <mxGeometry x="445" y="600" width="130" height="100" as="geometry" />
        </mxCell>
        <mxCell id="AsEGcWaMer-OqswIVFp1-4" value="&lt;p style=&quot;margin:0px;margin-top:4px;text-align:center;&quot;&gt;&lt;i&gt;&amp;lt;&amp;lt;Interface&amp;gt;&amp;gt;&lt;/i&gt;&lt;br&gt;&lt;b&gt;Servicios Productos Finales&lt;/b&gt;&lt;/p&gt;&lt;hr size=&quot;1&quot; style=&quot;border-style:solid;&quot;&gt;&lt;p style=&quot;margin: 0px 0px 0px 4px;&quot;&gt;añadirPF()&lt;/p&gt;&lt;p style=&quot;margin: 0px 0px 0px 4px;&quot;&gt;modificarPF()&lt;/p&gt;&lt;p style=&quot;margin: 0px 0px 0px 4px;&quot;&gt;eliminarPF()&lt;/p&gt;&lt;p style=&quot;margin:0px;margin-left:4px;&quot;&gt;&lt;br&gt;&lt;/p&gt;" style="verticalAlign=top;align=left;overflow=fill;html=1;whiteSpace=wrap;" vertex="1" parent="1">
          <mxGeometry x="520" y="440" width="160" height="110" as="geometry" />
        </mxCell>
      </root>
    </mxGraphModel>
  </diagram>
</mxfile>
